<?xml version="1.0" encoding="UTF-8" standalone="no"?>
<!-- Created with Inkscape (http://www.inkscape.org/) -->

<svg
   width="2000"
   height="2500"
   viewBox="0 0 2000 2500"
   version="1.1"
   id="svg1"
   inkscape:version="1.4 (86a8ad7, 2024-10-11)"
   sodipodi:docname="MD.svg"
   xml:space="preserve"
   xmlns:inkscape="http://www.inkscape.org/namespaces/inkscape"
   xmlns:sodipodi="http://sodipodi.sourceforge.net/DTD/sodipodi-0.dtd"
   xmlns="http://www.w3.org/2000/svg"
   xmlns:svg="http://www.w3.org/2000/svg"><sodipodi:namedview
     id="namedview1"
     pagecolor="#ffffff"
     bordercolor="#000000"
     borderopacity="1"
     inkscape:showpageshadow="false"
     inkscape:pageopacity="0"
     inkscape:pagecheckerboard="false"
     inkscape:deskcolor="#c8c8c8"
     inkscape:document-units="px"
     inkscape:zoom="0.31195937"
     inkscape:cx="459.99579"
     inkscape:cy="1559.4979"
     inkscape:window-width="1920"
     inkscape:window-height="991"
     inkscape:window-x="-9"
     inkscape:window-y="-9"
     inkscape:window-maximized="1"
     inkscape:current-layer="g14"
     showborder="false"
     labelstyle="default"
     inkscape:antialias-rendering="true"
     inkscape:clip-to-page="false"
     showgrid="true"
     showguides="true"><inkscape:grid
       id="grid3"
       units="px"
       originx="0"
       originy="0"
       spacingx="1"
       spacingy="1"
       empcolor="#0099e5"
       empopacity="0.30196078"
       color="#0099e5"
       opacity="0.14901961"
       empspacing="5"
       enabled="true"
       visible="true" /></sodipodi:namedview><defs
     id="defs1" /><g
     inkscape:label="Layer 1"
     inkscape:groupmode="layer"
     id="layer1"><g
       id="g3"
       style="display:inline"><path
         style="fill:none;stroke:#000000;stroke-width:5;stroke-linecap:square;stroke-miterlimit:2;stroke-dasharray:none;stroke-opacity:1;paint-order:stroke markers fill"
         d="m 541.74644,354.35317 c 3.99318,1.07324 3.13849,9.16949 7.16042,10.12937 3.26758,0.77984 5.56863,-4.3392 8.90685,-4.7154 4.01329,-0.45227 7.71809,3.81155 11.70117,3.1436 4.71347,-0.79043 7.12357,-8.54133 11.87581,-8.03364 1.84236,0.19682 1.99116,3.93459 3.84217,4.01682 3.09111,0.13732 4.28789,-7.62756 6.98577,-6.11255 2.67871,1.50425 -3.75927,6.92437 -1.5718,9.0815 5.39813,5.32325 15.75029,-7.91457 22.35447,-4.19146 1.73312,0.97705 0.34159,4.64984 2.09573,5.58862 1.58115,0.84621 3.6449,-2.04344 5.23932,-1.22251 1.90309,0.97986 0.65209,4.7686 2.44502,5.9379 1.99981,1.30422 4.95806,-1.09651 7.16042,-0.17464 5.96457,2.49668 8.92536,9.35996 13.27296,14.14618 3.02309,3.32808 4.41077,10.11231 8.90686,10.12937 4.37034,0.0166 4.54338,-11.02662 8.73221,-9.78008 5.5869,1.66259 -0.86451,12.61664 2.61966,17.28978 3.26884,4.38432 14.28216,1.54601 14.84476,6.98577 0.4875,4.71355 -10.99367,3.83243 -11.35187,8.55757 -1.83285,24.17796 44.24312,28.70606 50.82147,52.04398 1.27969,4.53992 -6.08518,10.10969 -3.14359,13.7969 2.43243,3.04899 8.87343,-2.68644 11.70116,0 1.64816,1.5658 -1.15881,5.11001 0.34929,6.81112 2.03802,2.29885 7.2944,-0.9271 9.0815,1.5718 3.01749,4.21936 -4.2096,10.49072 -2.44502,15.36869 1.05254,2.90963 5.68118,3.30687 6.98577,6.11255 1.32566,2.851 1.33413,6.50826 0.17464,9.43079 -1.32078,3.32907 -8.59722,4.27195 -7.5097,7.68435 0.98816,3.10065 7.16004,-0.40078 9.60543,1.74644 9.0476,7.94442 10.93625,22.36464 11.00259,34.40492 0.0131,2.37538 -3.59746,4.97063 -2.09573,6.81112 2.29246,2.80959 7.50826,-2.50692 10.82794,-1.04786 8.1434,3.57916 12.69714,13.07449 16.06727,21.3066 2.86979,7.00994 3.28825,14.9612 2.96896,22.5291 -0.24114,5.71568 1.04492,13.52239 -3.66753,16.76585 -2.57036,1.76911 -7.48692,-3.96742 -9.25615,-1.39715 -2.88229,4.18727 5.15228,8.76926 7.50971,13.27296 4.28652,8.1891 6.89879,17.29975 12.05045,24.97413 4.80167,7.15301 11.95323,12.44752 17.28978,19.21086 5.91146,7.49196 8.42314,18.10508 16.24191,23.57698 2.66068,1.86205 7.77207,-0.34696 9.43079,2.44501 1.34856,2.26991 -3.42837,5.5166 -1.92108,7.68435 0.90283,1.29844 3.49497,-0.48186 4.71539,0.52393 3.01228,2.48252 1.35269,7.91283 3.49288,11.17724 4.68415,7.1447 13.58622,10.49239 19.38552,16.76584 3.53295,3.8218 4.97296,9.61765 9.25614,12.57439 2.13878,1.47642 5.76372,0.1707 7.5097,2.09573 4.05083,4.46626 3.14477,11.78406 3.1436,17.81371 -0.002,8.69039 -5.42582,17.0275 -4.54075,25.67271 0.78499,7.66761 4.09621,15.19597 8.55757,21.48124 5.44582,7.67219 15.18026,11.37173 21.30659,18.51229 2.91313,3.39541 2.9897,9.73314 7.16042,11.35187 3.48897,1.35413 7.17662,-3.79016 10.82794,-2.96895 4.26916,0.96017 6.21129,6.29167 9.95472,8.55757 4.71648,2.85489 11.51148,2.17333 15.3687,6.11255 7.56515,7.72599 7.74013,20.19606 11.35187,30.3881 3.30199,9.31795 6.28315,18.7465 9.43079,28.11772 2.15118,6.40455 3.13221,13.33214 6.46184,19.21087 2.56418,4.52725 5.90807,8.83416 10.12937,11.87581 4.78877,3.45053 12.6176,2.11914 16.41655,6.63648 3.56423,4.23826 1.23703,11.18448 3.49293,16.24191 3.515,7.88015 8.4801,15.53745 15.194,20.95733 5.3949,4.3551 13.5206,4.1816 19.0362,8.3829 6.4516,4.9142 10.5264,12.3558 15.3687,18.8616 4.8299,6.4892 12.436,12.0822 13.6223,20.0841 0.4023,2.7139 -2.9844,5.169 -2.445,7.859 0.5524,2.7552 4.7035,3.7431 5.4139,6.4618 1.0334,3.9547 -2.4338,7.9663 -2.2703,12.0505 0.3452,8.6218 5.1946,16.4981 6.8111,24.9741 0.7901,4.1426 -0.6624,8.8942 1.3971,12.5744 1.6207,2.8961 6.1556,3.2642 7.859,6.1125 1.6063,2.6859 0.079,6.5056 1.5718,9.2562 1.9257,3.5486 6.6556,4.8567 8.9069,8.2082 5.8548,8.7158 9.0052,19.207 11.0026,29.5149 0.853,4.4022 -1.3387,9.2934 0.3493,13.4476 2.3572,5.8012 10.2111,8.0724 12.749,13.7969 2.1318,4.8086 -0.3237,10.7474 1.3971,15.718 1.0459,3.0211 4.7041,4.8817 5.2394,8.0336 1.3451,7.9205 -4.3183,15.4995 -5.7633,23.4024 -1.5714,8.5946 -0.756,17.6175 -3.1436,26.022 -1.1744,4.1341 -5.8333,7.424 -5.414,11.7011 0.4635,4.7282 6.3058,7.2538 8.383,11.5265 3.3599,6.9112 7.1541,14.5444 6.2872,22.1799 -0.532,4.6857 -4.5461,8.2635 -6.8112,12.3997 -5.8936,10.7621 -10.3414,22.445 -17.639,32.3092 -2.179,2.9454 -6.2844,4.4732 -7.6844,7.859 -2.2246,5.38 0.024,11.646 -0.1746,17.4644 -0.1707,5.012 1.97,10.8884 -0.8733,15.0194 -4.0182,5.838 -17.0301,2.0479 -19.3855,8.7322 -1.3671,3.8797 6.5774,7.0097 5.5887,11.0026 -0.9939,4.0137 -8.8565,3.2263 -10.1294,7.1604 -1.4395,4.449 3.3751,8.7445 4.5407,13.273 1.8417,7.1555 4.7414,14.4967 3.8422,21.8305 -0.628,5.1218 -6.534,8.992 -6.2872,14.1462 0.1982,4.14 5.8842,6.6895 6.1126,10.8279 0.6699,12.1355 -14.0483,21.3808 -14.3209,33.5317 -0.067,2.9836 3.1835,5.3989 3.1436,8.383 -0.058,4.3345 -5.0975,7.7204 -4.89,12.0504 0.2829,5.904 7.7068,9.8286 8.2083,15.718 0.4514,5.3013 -5.35,9.8934 -4.8901,15.194 0.5402,6.2262 7.0384,10.5755 8.7322,16.5912 2.4506,8.7036 3.8607,18.2785 1.7465,27.0699 -1.1719,4.873 -7.4673,7.9165 -7.6844,12.9237 -0.1624,3.7458 3.6824,6.5798 4.8901,10.1293 2.9312,8.6146 2.6103,18.1222 5.5886,26.7206 2.9143,8.4134 10.2032,15.181 11.8758,23.9263 2.5129,13.1388 -0.8232,26.8513 -3.3182,39.9935 -1.0546,5.5548 -2.2398,11.2475 -4.8901,16.2419 -3.9763,7.4931 -17.6567,11.4023 -16.0672,19.7348 1.2502,6.5539 13.143,4.6965 17.4644,9.7801 6.6198,7.7873 8.2632,18.8385 10.4786,28.8163 1.8621,8.3867 -4.0142,19.8154 2.2704,25.6727 4.7704,4.4461 13.5359,-2.1472 19.5602,0.3493 6.5038,2.6952 11.7819,8.5121 15.194,14.6701 5.7108,10.3066 1.4091,24.3952 7.3351,34.5796 6.2632,10.764 18.0533,32.368 27.9431,24.7994 9.6551,-7.3891 -13.9422,-20.7198 -16.242,-32.6584 -1.2263,-6.366 -4.1926,-16.4187 1.5718,-19.3855 7.6609,-3.9429 13.7837,15.2066 22.1799,13.2729 6.8445,-1.5764 10.0262,-10.7774 11.5265,-17.639 3.0301,-13.858 -11.2842,-28.8132 -6.2872,-42.0893 4.3797,-11.6361 20.9225,-14.2186 28.467,-24.1009 7.9495,-10.4128 13.8479,-22.8175 16.5912,-35.6274 1.7556,-8.1979 5.5227,-19.1649 -0.3493,-25.1488 -4.977,-5.0719 -17.7391,5.447 -21.3066,-0.6986 -5.8177,-10.0221 5.9436,-25.4241 16.2419,-30.7374 6.6802,-3.4466 16.5821,7.7839 22.3545,2.969 5.5499,-4.6292 -3.7491,-16.2504 1.0479,-21.6559 8.112,-9.1411 28.3573,3.3011 36.1513,-6.1126 3.6761,-4.4401 -3.6682,-12.5766 -0.3493,-17.2897 5.9037,-8.3838 22.9955,-1.5903 29.1656,-9.7801 7.153,-9.4944 2.549,-23.7803 1.5718,-35.6274 -0.8316,-10.0818 -11.5961,-21.0786 -6.2872,-29.6896 8.5293,-13.8344 32.0798,-6.3245 47.154,-12.3997 10.6357,-4.2864 23.1517,-7.5975 30.0388,-16.7658 5.1313,-6.8309 6.9859,-16.5186 5.7632,-24.9742 -1.4064,-9.7263 -15.602,-15.9078 -14.4954,-25.6727 1.9974,-17.6256 30.6282,-22.3629 35.8701,-39.3091 3.1447,-10.1664 0.557,-22.2215 -4.4457,-31.614 -5.0976,-9.5707 -22.3859,-11.0446 -24.2045,-21.7346 -1.6067,-9.4441 12.7042,-15.6791 13.8312,-25.1924 2.2087,-18.6433 -12.9619,-35.6549 -14.8191,-54.3365 -0.7184,-7.2261 -2.7674,-15.846 1.4819,-21.7346 10.9325,-15.1498 35.3874,-12.439 51.8667,-21.2407 9.1038,-4.8624 16.0212,-13.6687 25.6864,-17.2889 6.2158,-2.3282 14.3623,-6.3344 19.7587,-2.4698 8.6114,6.167 5.7168,20.5516 6.4216,31.12 0.7799,11.6935 -7.9271,24.7004 -2.4698,35.0717 3.0245,5.7479 10.5995,11.8295 16.7949,9.8794 10.1907,-3.2077 9.3504,-19.2322 13.3371,-29.1441 2.7982,-6.957 -0.07,-20.708 7.4096,-21.2407 10.3576,-0.7376 4.1092,25.8025 14.3251,27.6623 13.0764,2.3805 16.5125,-28.7666 29.6381,-26.6743 7.5027,1.196 8.8859,12.5759 11.3612,19.7587 2.276,6.6046 -1.9025,15.7347 2.9639,20.7467 6.0531,6.2342 19.3865,-1.5391 25.6863,4.4457 6.4871,6.1627 -0.6013,20.0619 5.9276,26.1803 5.3529,5.0163 15.9375,7.9533 21.7347,3.4578 11.1089,-8.6144 -7.306,-33.5682 3.9517,-41.9873 5.5082,-4.1194 13.9826,6.7793 20.2527,3.9517 8.0061,-3.6105 4.5579,-22.9584 13.3372,-22.7225 16.4901,0.4432 8.5188,35.5743 22.7225,43.9632 15.8845,9.3816 37.4886,3.2311 55.3245,-1.4819 8.7364,-2.3085 15.2199,-10.315 23.9203,-12.7556 11.79,-3.3073 32.4914,9.4124 36.6753,-2.0957 2.7299,-7.5088 -9.4842,-16.8059 -17.4644,-16.4166 -4.9448,0.2412 -4.8767,11.8593 -9.7801,11.1772 -4.8489,-0.6746 -2.5672,-10.0904 -6.2872,-13.2729 -5.6268,-4.8138 -16.4692,-0.6807 -21.3066,-6.2872 -5.4535,-6.3206 3.6719,-20.515 -3.4929,-24.7995 -4.0467,-2.4199 -8.7951,6.3666 -13.2729,4.89 -4.2322,-1.3956 -4.6293,-7.6363 -7.3351,-11.1772 -9.816,-12.8453 -20.3352,-25.2747 -32.1345,-36.326 -3.3315,-3.1203 -6.4432,-9.6514 -10.828,-8.3829 -5.2364,1.5149 -0.4835,13.4575 -5.5886,15.3687 -6.9794,2.6129 -17.5924,-3.6401 -19.5602,-10.828 -1.6398,-5.9898 8.1298,-9.9948 9.4308,-16.0672 1.3495,-6.2987 2.445,-14.6419 -2.0957,-19.2109 -4.296,-4.3228 -12.3927,-0.1344 -18.163,-2.0957 -3.8567,-1.3109 -9.1328,-2.4426 -10.4787,-6.2872 -2.4223,-6.9196 8.5772,-13.3312 7.6844,-20.608 -0.6017,-4.9043 -7.1793,-7.4329 -8.3829,-12.2251 -1.8259,-7.2701 4.9068,-15.2744 2.445,-22.3545 -3.7584,-10.8091 -12.7243,-25.6897 -24.1009,-24.4502 -9.5698,1.0426 -6.709,20.2459 -15.3687,24.4502 -6.9515,3.375 -17.6019,3.0321 -23.0531,-2.445 -6.5217,-6.5527 -0.7273,-18.5828 -2.7943,-27.5938 -1.7458,-7.6109 -9.262,-14.2938 -8.0336,-22.0052 0.6522,-4.0943 7.2784,-5.6541 7.6844,-9.7801 0.8312,-8.4466 -4.7211,-17.6321 -11.5266,-22.7037 -6.2626,-4.667 -15.9778,-7.4995 -23.053,-4.1915 -4.4872,2.098 -3.3154,10.0291 -7.3351,12.9237 -4.9103,3.536 -12.2367,5.8406 -17.8137,3.4929 -11.548,-4.8614 -25.6966,-19.9863 -20.608,-31.436 4.9288,-11.0901 28.4863,3.9601 35.9767,-5.5886 7.5014,-9.5628 1.1003,-24.93711 -3.1436,-36.32601 -3.4643,-9.29664 -11.6304,-16.07637 -17.4644,-24.1009 -7.2032,-9.90777 -9.7846,-26.66948 -21.6559,-29.68953 -7.1167,-1.81047 -14.7072,4.24795 -19.9094,9.43079 -6.3086,6.28513 -5.2662,17.76775 -11.5266,24.10091 -6.1131,6.18416 -14.8143,12.89078 -23.4023,11.52652 -6.4239,-1.02048 -13.7186,-7.12274 -13.9715,-13.62225 -0.5902,-15.16907 22.562,-21.01866 30.0388,-34.23027 3.0104,-5.3195 5.6114,-11.3522 5.5886,-17.46443 -0.06,-16.05281 -6.0408,-32.44958 -15.0194,-45.75679 -5.453,-8.08197 -18.3469,-9.97378 -22.3545,-18.86158 -2.1063,-4.6713 -3.9981,-12.65619 0.3493,-15.36869 8.4858,-5.29459 17.3483,14.02624 27.2445,12.57438 6.6105,-0.96982 14.9492,-6.59206 15.0194,-13.27296 0.1065,-10.13414 -15.7191,-12.94739 -22.3544,-20.60802 -5.9544,-6.87451 -14.9,-13.41574 -15.4411,-22.49433 -0.4645,-7.79303 13.6433,-13.45005 10.8673,-20.74668 -5.6329,-14.80592 -41.1224,-1.30867 -44.4571,-16.79493 -2.647,-12.29261 27.1391,-14.10851 26.6743,-26.6743 -0.466,-12.60023 -22.411,-13.74146 -28.6502,-24.69842 -7.4479,-13.07953 -7.9197,-29.40577 -7.9035,-44.45717 0.018,-16.73022 4.4795,-33.25883 8.8914,-49.39685 3.2424,-11.86009 16.9846,-23.00094 12.8432,-34.5778 -4.6229,-12.92287 -22.1141,-18.02163 -35.5657,-20.74667 -10.0884,-2.04372 -21.2903,8.28716 -30.6261,3.95174 -11.0187,-5.11696 -15.7677,-19.15138 -19.7587,-30.62604 -3.3693,-9.68717 5.6059,-24.99106 -2.9638,-30.62605 -8.0926,-5.32126 -19.0901,13.3997 -27.6622,8.89143 -6.0859,-3.20071 -1.1397,-14.82342 -5.9277,-19.75874 -5.801,-5.97946 -15.4824,-9.20923 -23.7105,-7.9035 -9.3021,1.47617 -14.9827,22.16186 -22.7225,16.79493 -5.9104,-4.09834 1.7607,-14.88444 5.9276,-20.74667 6.299,-8.8617 25.7394,-7.93878 26.6743,-18.77081 0.6007,-6.95988 -8.1054,-12.88808 -14.819,-14.81905 -15.5849,-4.48255 -33.0556,18.39189 -47.421,10.8673 -6.2838,-3.29144 -6.1891,-12.87542 -7.9035,-19.75874 -2.9619,-11.89224 7.1943,-31.45828 -3.9518,-36.55367 -14.2066,-6.49446 -25.3381,35.04046 -38.5295,26.6743 -6.7664,-4.29137 0.1314,-16.66735 3.9517,-23.71049 5.112,-9.42451 23.4776,-11.01551 23.7105,-21.73461 0.1113,-5.12169 -5.8724,-9.7295 -10.8673,-10.86731 -19.3959,-4.41825 -39.1161,29.75926 -56.3124,19.75874 -6.3655,-3.70186 -0.4968,-15.23179 -3.9517,-21.73461 -9.5058,-17.89164 -24.3049,-35.90894 -43.4693,-42.48129 -13.7943,-4.73071 -29.9893,10.50354 -43.4692,4.93968 -9.7456,-4.02254 -15.0384,-15.27099 -19.75874,-24.69842 -4.11243,-8.21337 -1.06853,-19.59025 -6.91555,-26.6743 -9.75155,-11.81464 -27.2503,-14.11837 -41.49336,-19.75875 -16.07364,-6.3653 -32.41034,-12.59182 -49.39685,-15.80699 -10.05144,-1.90251 -20.85538,-5.00655 -30.62605,-1.97587 -11.20006,3.47405 -19.5399,13.2766 -27.66224,21.73461 -5.0646,5.2739 -5.59641,16.80893 -12.84318,17.78287 -15.0877,2.02774 -20.76873,-32.22777 -35.56573,-28.65017 -12.61006,3.04885 -5.67843,27.45885 -15.80699,35.56573 -6.55479,5.24644 -16.33576,5.6854 -24.69843,4.93968 -11.63398,-1.03744 -22.32811,-7.28669 -32.60192,-12.84318 -8.51921,-4.60754 -15.2551,-21.51857 -23.71049,-16.79493 -8.93078,4.98921 7.85223,22.25232 1.97587,30.62605 -6.10631,8.7014 -20.00355,9.29643 -30.62604,8.89143 -11.24641,-0.42878 -22.29905,-5.53879 -31.61399,-11.85524 -8.10372,-5.49513 -10.25576,-19.3766 -19.75874,-21.73461 -12.23355,-3.03555 -32.82206,0.54088 -35.56573,12.84318 -3.85222,17.27293 30.76914,21.19145 37.5416,37.5416 1.51227,3.65094 2.26711,8.6185 0,11.85525 -2.21132,3.1571 -7.03604,4.37442 -10.8673,3.95175 -13.9834,-1.54266 -21.79823,-25.61579 -35.56574,-22.72256 -12.78169,2.68606 -12.75295,23.11951 -21.73461,32.60193 -4.40998,4.65585 -10.91784,6.94261 -15.40554,11.52359 -6.7153,6.85488 -23.48525,16.55147 -16.76584,23.40233 3.95741,4.03483 9.05661,-6.81538 13.97154,-9.60543 3.398,-1.92894 6.87987,-5.90422 10.65329,-4.89004 z"
         id="path2"
         sodipodi:nodetypes="ssssssssssssssssssssssssssssssssssssssssssssssssssssssssssssssssssssssssssssssssssssssssssssssssssssssssssssssssssssssssssssssssssssssssssssssssssssssssssssssssssssssssssssssssssssssssssssssssssssssssssssssssssssssssssssssssssssssssssssssssssssssssssssssssssssssssss" /><path
         style="fill:none;stroke:#000000;stroke-width:5;stroke-linecap:round;stroke-linejoin:miter;stroke-miterlimit:2;stroke-dasharray:15, 15;stroke-dashoffset:8;stroke-opacity:1;paint-order:stroke markers fill"
         d="m 1197.3797,444.57166 c 0,0 14.2731,-40.61385 32.1079,-43.96319 18.6298,-3.49865 28.9658,30.13614 47.915,30.62604 9.6569,0.24967 15.589,-15.3705 25.1924,-14.32508 11.2422,1.22383 19.8986,12.72949 25.1924,22.72255 7.3144,13.80725 1.1246,31.73332 6.4216,46.43304 2.7573,7.65176 5.2919,17.72489 12.8431,20.74668 7.2674,2.90821 15.0882,-7.65614 22.7226,-5.92762 10.7128,2.42549 14.2147,21.61217 25.1924,21.24064 13.5001,-0.4569 15.7556,-26.36449 29.1441,-28.1562 9.4952,-1.27069 20.2601,5.61859 25.1924,13.83111 6.5282,10.86988 -7.4428,28.14721 0.494,38.03558 5.3999,6.72773 18.8903,0.0366 25.1924,5.92762 3.2721,3.0587 5.5989,8.67791 3.9517,12.84318 -2.4409,6.1724 -13.6392,4.33532 -17.2889,9.87937 -4.8291,7.3357 -10.2599,21.2916 -2.9638,26.18034 6.2445,4.18413 12.7592,-13.60721 19.7588,-10.86731 3.8789,1.51836 4.3541,7.70922 3.9517,11.85524 -1.5171,15.63202 -23.966,25.31181 -23.2165,40.99939 0.3837,8.03038 13.1685,11.74655 13.8311,19.75874 1.3535,16.3677 -12.9632,30.27203 -21.2406,44.45717 -5.0649,8.67975 -15.7419,14.76878 -17.2889,24.69842 -2.3891,15.33467 0.9526,35.79674 13.8311,44.45717 11.2448,7.5618 28.2455,-9.2302 40.5054,-3.45778 7.0663,3.32705 9.8168,12.2928 13.3372,19.26477 5.9613,11.80622 5.2737,26.69592 12.8431,37.54161 8.3742,11.99891 19.7619,30.65919 34.0839,27.66223 11.2447,-2.35302 6.3007,-24.1755 15.807,-30.62604 8.3513,-5.66684 22.3289,-9.36456 30.132,-2.96381 14.2001,11.64814 7.0637,36.53662 5.4337,54.8305 -1.1241,12.6157 -9.8034,23.90082 -10.3733,36.55367 -0.3996,8.87175 9.1453,18.35857 4.9396,26.18033 -4.2287,7.86467 -21.2166,2.15068 -24.6984,10.37334 -2.8257,6.67314 1.7507,16.42417 7.9035,20.25271 9.822,6.11162 26.8509,-11.57304 34.5778,-2.96381 10.8708,12.11222 -8.852,31.64854 -9.3854,47.91494 -0.3808,11.6146 -2.9725,25.6328 4.4457,34.5778 8.5093,10.2607 27.2532,4.5115 38.0356,12.3492 8.3918,6.1 8.5606,21.5553 18.2768,25.1924 12.3442,4.6208 26.4491,-14.1634 38.5296,-8.8914 20.0099,8.7324 26.9021,35.7312 32.6019,56.8064 5.9324,21.9351 -1.4933,45.5315 0.494,68.1676 0.8617,9.8155 8.3776,19.9102 4.9396,29.1442 -4.0379,10.8454 -26.7745,22.1013 -26.7745,22.1013"
         id="path3"
         sodipodi:nodetypes="cssssssssssssssssssssssssssssssssssssssssssc" /><path
         style="fill:none;stroke:#000000;stroke-width:5;stroke-linecap:round;stroke-miterlimit:2;stroke-dasharray:15, 15;stroke-dashoffset:0;paint-order:stroke markers fill"
         d="m 165,115 c 0,0 37.92938,6.65104 55,15 7.48596,3.66126 11.68763,15.59074 20,15 7.05328,-0.50126 7.93975,-15.39103 15,-15 10.65554,0.59016 16.46754,14.92972 20,25 1.10336,3.14543 -2.35702,7.64298 0,10 5.89256,5.89256 17.02423,2.41487 25,0 5.75141,-1.74139 9.07892,-8.97439 15,-10 6.77102,-1.17283 13.3775,6.83433 20,5 6.81449,-1.88751 8.64795,-18.10668 15,-15 12.07075,5.90361 -10.05701,27.55082 -5,40 4.01633,9.88726 16.01832,25.76353 25,20 11.56699,-7.42251 -19.71825,-30.28175 -10,-40 4.85913,-4.85913 15.39766,-0.10301 20,5 7.89295,8.75158 -3.90311,27.27837 5,35 7.55454,6.55202 20.7612,-3.82683 30,0 6.53281,2.70598 8.46719,12.29402 15,15 9.2388,3.82683 20.7612,3.82683 30,0 4.35521,-1.80399 5.64479,-8.19601 10,-10 7.699,-3.18903 17.398,-3.4138 25,0 18.30804,8.22152 20.10394,47.63146 40,45 11.08382,-1.46595 5.03703,-24.92661 15,-30 9.03407,-4.60037 24.95735,13.79486 30,5 6.47474,-11.29257 -32.10293,-19.09161 -25,-30 6.6208,-10.16795 25.31322,17.30675 35,10 6.65291,-5.0183 -7.699,-21.81097 0,-25 6.53281,-2.70598 8.11809,16.6246 15,15 10.25895,-2.42181 -0.42374,-28.43261 10,-30 14.17782,-2.13189 10.96318,32.08052 25,35 9.51464,1.97892 15.42433,-13.34136 25,-15 16.74735,-2.90087 33.01717,10.68737 50,10 12.12359,-0.49069 22.87641,-9.50931 35,-10 8.49141,-0.34368 18.89464,10.91159 25,5 7.28325,-7.0521 -13.15485,-23.97703 -5,-30 8.99335,-6.64226 19.84252,19.67178 30,15 6.24316,-2.87145 -1.3724,-17.42808 5,-20 14.58053,-5.88476 31.05982,12.06573 40,25 9.66425,13.98182 10,50 10,50"
         id="path5"
         sodipodi:nodetypes="cssssssssssssssssssssssssssssssssssssc" /><path
         style="fill:none;stroke:#000000;stroke-width:5;stroke-linecap:round;stroke-miterlimit:2;stroke-dasharray:15, 15;stroke-dashoffset:0;paint-order:stroke markers fill"
         d="m 60,240 c 0,0 12.590946,9.18669 20,10 20.49243,2.2495 39.81765,-19.20388 60,-15 26.76099,5.57418 40.38996,38.10176 65,50 18.56017,8.9733 40.31669,8.87078 60,15 13.59608,4.23371 25.9885,12.45923 40,15 6.55969,1.1895 13.8408,-2.55122 20,0 8.71042,3.60797 11.84555,15.26779 20,20 16.43582,9.53808 39.58403,3.8888 55,15 4.87496,3.51367 5.60707,10.8996 10,15 9.82289,9.16878 22.01305,16.55113 35,20 11.27583,2.99446 23.52054,2.08162 35,0 14.0115,-2.54077 40,-15 40,-15"
         id="path6"
         sodipodi:nodetypes="csssssssssssc" /><path
         style="fill:none;stroke:#000000;stroke-width:5;stroke-linecap:round;stroke-miterlimit:2;stroke-dasharray:15, 15;stroke-dashoffset:0;paint-order:stroke markers fill"
         d="m 60,535 c 0,0 30.544276,4.004 45,0 18.73125,-5.18826 31.13201,-25.33345 50,-30 29.16741,-7.21386 60.08848,7.84233 90,5 27.3641,-2.60026 52.71858,-16.6415 80,-20 19.85015,-2.44367 42.596,9.85398 60,0 33.82729,-19.15269 60,-100 60,-100"
         id="path7"
         sodipodi:nodetypes="csssssc" /><path
         style="fill:none;stroke:#000000;stroke-width:5;stroke-linecap:round;stroke-miterlimit:2;stroke-dasharray:15, 15;stroke-dashoffset:0;paint-order:stroke markers fill"
         d="m 1805,1320 c 0,0 14.5766,-22.2894 25,-20 18.2001,3.9974 7.3223,44.1074 25,50 3.5355,1.1785 6.7361,-6.7989 10,-5 14.6692,8.0852 -4.9057,36.4933 5,50 7.5065,10.2354 28.0126,4.4034 35,15 5.5049,8.3484 -3.4695,20.6211 0,30 5.3311,14.4115 28.9688,19.6687 30,35 2.2648,33.6713 -33.4491,59.0299 -55,85 -58.7213,70.7627 -138.8661,121.3108 -200,190 -22.161,24.8998 -78.4382,52.2305 -60,80 7.6023,11.4496 28.3864,-17.3494 40,-10 14.3624,9.089 9.5284,33.0098 10,50 0.654,23.5612 12.3607,62.5464 -10,70 -13.4164,4.4721 -24.588,-16.9344 -30,-30 -3.8268,-9.2388 5.5049,-21.6516 0,-30 -13.9747,-21.1932 -45.1325,-24.8958 -70,-30 -22.8568,-4.6915 -47.0206,-4.0484 -70,0 -38.4239,6.7693 -82.787,12.0416 -110,40 -7.3522,7.5536 -0.1138,26.3429 -10,30 -18.2292,6.7434 -33.0864,-39.5763 -50,-30 -5.8013,3.2847 1.5317,13.5117 0,20 -1.7125,7.2542 -11.1939,12.6427 -10,20 0.7551,4.6532 11.2583,5.457 10,10 -3.6687,13.245 -26.2563,10 -40,10 -27.4874,0 -55.2024,-8.1411 -80,-20 -13.7657,-6.5831 -36.52,-27.6003 -36.52,-27.6003"
         id="path8"
         sodipodi:nodetypes="csssssssssssssssssssssssssc" /></g><g
       id="g14"><path
         style="fill:none;stroke:#000000;stroke-width:2.5;stroke-linecap:round;stroke-miterlimit:2;stroke-dasharray:20,5,2.5,5;stroke-dashoffset:0;paint-order:stroke markers fill"
         d="M 60,1960 H 1945"
         id="path14" /><path
         style="fill:none;stroke:#000000;stroke-width:2.5;stroke-linecap:round;stroke-miterlimit:2;stroke-dasharray:20,5,2.5,5;stroke-dashoffset:0;paint-order:stroke markers fill"
         d="m 1470,1960 v 480"
         id="path15" /><path
         style="fill:none;stroke:#000000;stroke-width:2.5;stroke-linecap:round;stroke-miterlimit:2;stroke-dasharray:20,5,2.5,5;stroke-dashoffset:0;paint-order:stroke markers fill"
         d="m 1470,2115 h 280"
         id="path16" /><path
         style="fill:none;stroke:#000000;stroke-width:2.5;stroke-linecap:round;stroke-miterlimit:2;stroke-dasharray:20,5,2.5,5;stroke-dashoffset:0;paint-order:stroke markers fill"
         d="m 1615,2115 v 325"
         id="path17" /><path
         style="fill:none;stroke:#000000;stroke-width:2.5;stroke-linecap:round;stroke-miterlimit:2;stroke-dasharray:20,5,2.5,5;stroke-dashoffset:0;paint-order:stroke markers fill"
         d="m 1615,2290 h 270"
         id="path18" /><path
         style="fill:none;stroke:#000000;stroke-width:2.5;stroke-linecap:round;stroke-miterlimit:2;stroke-dasharray:20,5,2.5,5;stroke-dashoffset:0;paint-order:stroke markers fill"
         d="m 1315,1960 v 300"
         id="path19" /><path
         style="fill:none;stroke:#000000;stroke-width:2.5;stroke-linecap:round;stroke-miterlimit:2;stroke-dasharray:20,5,2.5,5;stroke-dashoffset:0;paint-order:stroke markers fill"
         d="m 1160,1960 v 480"
         id="path20" /><path
         style="fill:none;stroke:#000000;stroke-width:2.5;stroke-linecap:round;stroke-miterlimit:2;stroke-dasharray:20,5,2.5,5;stroke-dashoffset:0;paint-order:stroke markers fill"
         d="m 1002.5,1960 v 300"
         id="path21" /><path
         style="fill:none;stroke:#000000;stroke-width:2.5;stroke-linecap:round;stroke-miterlimit:2;stroke-dasharray:20,5,2.5,5;stroke-dashoffset:0;paint-order:stroke markers fill"
         d="m 900,1960 v 480"
         id="path22" /><path
         style="fill:none;stroke:#000000;stroke-width:2.5;stroke-linecap:round;stroke-miterlimit:2;stroke-dasharray:20,5,2.5,5;stroke-dashoffset:0;paint-order:stroke markers fill"
         d="m 770,1960 v 300"
         id="path23" /><path
         style="fill:none;stroke:#000000;stroke-width:2.5;stroke-linecap:round;stroke-miterlimit:2;stroke-dasharray:20,5,2.5,5;stroke-dashoffset:0;paint-order:stroke markers fill"
         d="m 560,2250 v 190"
         id="path24"
         sodipodi:nodetypes="cc" /><path
         style="fill:none;stroke:#000000;stroke-width:2.5;stroke-linecap:round;stroke-miterlimit:2;stroke-dasharray:20,5,2.5,5;stroke-dashoffset:0;paint-order:stroke markers fill"
         d="m 740,2260 v 180"
         id="path25" /><path
         style="fill:none;stroke:#000000;stroke-width:2.5;stroke-linecap:round;stroke-miterlimit:2;stroke-dasharray:20,5,2.5,5;stroke-dashoffset:0;paint-order:stroke markers fill"
         d="m 620,2070 v 190"
         id="path26" /><path
         style="fill:none;stroke:#000000;stroke-width:2.5;stroke-linecap:round;stroke-miterlimit:2;stroke-dasharray:20,5,2.5,5;stroke-dashoffset:0;paint-order:stroke markers fill"
         d="m 290,1960 v 290"
         id="path27" /><path
         style="fill:none;stroke:#000000;stroke-width:2.5;stroke-linecap:round;stroke-miterlimit:2;stroke-dasharray:20,5,2.5,5;stroke-dashoffset:0;paint-order:stroke markers fill"
         d="M 60,2140 H 290"
         id="path28" /><path
         style="fill:none;stroke:#000000;stroke-width:2.5;stroke-linecap:round;stroke-miterlimit:2;stroke-dasharray:20,5,2.5,5;stroke-dashoffset:0;paint-order:stroke markers fill"
         d="M 290,2250 H 620"
         id="path29" /><path
         style="fill:none;stroke:#000000;stroke-width:2.5;stroke-linecap:round;stroke-miterlimit:2;stroke-dasharray:20,5,2.5,5;stroke-dashoffset:0;paint-order:stroke markers fill"
         d="M 620,2260 H 770"
         id="path30" /><path
         style="fill:none;stroke:#000000;stroke-width:2.5;stroke-linecap:round;stroke-miterlimit:2;stroke-dasharray:20,5,2.5,5;stroke-dashoffset:0;paint-order:stroke markers fill"
         d="m 900,2260 h 260"
         id="path31" /><path
         style="fill:none;stroke:#000000;stroke-width:2.5;stroke-linecap:round;stroke-miterlimit:2;stroke-dasharray:20,5,2.5,5;stroke-dashoffset:0;paint-order:stroke markers fill"
         d="m 1000,2040 h 160"
         id="path32" /><path
         style="fill:none;stroke:#000000;stroke-width:2.5;stroke-linecap:round;stroke-miterlimit:2;stroke-dasharray:20,5,2.5,5;stroke-dashoffset:0;paint-order:stroke markers fill"
         d="m 1160,2260 h 310"
         id="path33" /><path
         style="fill:none;stroke:#000000;stroke-width:2.5;stroke-linecap:round;stroke-miterlimit:2;stroke-dasharray:20,5,2.5,5;stroke-dashoffset:0;paint-order:stroke markers fill"
         d="M 620,2070 H 770"
         id="path34" /><path
         style="display:inline;fill:none;stroke:#000000;stroke-width:5;stroke-linecap:round;stroke-miterlimit:2;stroke-dasharray:none;stroke-dashoffset:8;paint-order:stroke markers fill"
         d="m 50,105 1900,3 5,2342 H 50 Z"
         id="path4" /></g></g></svg>
